<?xml version="1.0" encoding="UTF-8"?>
<svg xmlns="http://www.w3.org/2000/svg" xmlns:xlink="http://www.w3.org/1999/xlink" width="26px" height="26px" viewBox="0 0 26 26" version="1.1">
<g id="surface1">
<path style=" stroke:none;fill-rule:nonzero;fill:rgb(100%,19.215686%,19.215686%);fill-opacity:1;" d="M 13 0 C 5.820312 0 0 5.820312 0 13 C 0 20.179688 5.820312 26 13 26 C 20.179688 26 26 20.179688 26 13 C 26 5.820312 20.179688 0 13 0 Z M 20.316406 10.992188 L 12.710938 18.601562 C 12.34375 18.964844 11.847656 19.171875 11.328125 19.171875 C 10.816406 19.171875 10.320312 18.964844 9.957031 18.601562 L 6.15625 14.800781 C 5.394531 14.039062 5.394531 12.808594 6.15625 12.046875 C 6.917969 11.292969 8.140625 11.292969 8.902344 12.046875 L 11.328125 14.480469 L 17.5625 8.246094 C 18.324219 7.484375 19.554688 7.484375 20.316406 8.246094 C 21.070312 9.003906 21.070312 10.230469 20.316406 10.992188 Z M 20.316406 10.992188 "/>
<path style=" stroke:none;fill-rule:nonzero;fill:rgb(0%,0%,0%);fill-opacity:1;" d="M 20.316406 10.992188 L 12.710938 18.601562 C 12.34375 18.964844 11.847656 19.171875 11.328125 19.171875 C 10.816406 19.171875 10.320312 18.964844 9.957031 18.601562 L 6.15625 14.800781 C 5.394531 14.039062 5.394531 12.808594 6.15625 12.046875 C 6.917969 11.292969 8.140625 11.292969 8.902344 12.046875 L 11.328125 14.480469 L 17.5625 8.246094 C 18.324219 7.484375 19.554688 7.484375 20.316406 8.246094 C 21.070312 9.003906 21.070312 10.230469 20.316406 10.992188 Z M 20.316406 10.992188 "/>
</g>
</svg>
