<?xml version="1.0" encoding="UTF-8"?>
<svg xmlns="http://www.w3.org/2000/svg" xmlns:xlink="http://www.w3.org/1999/xlink" width="22px" height="22px" viewBox="0 0 22 22" version="1.1">
<g id="surface1">
<path style=" stroke:none;fill-rule:evenodd;fill:rgb(100%,19.215686%,19.215686%);fill-opacity:1;" d="M 11 22 C 17.074219 22 22 17.074219 22 11 C 22 4.925781 17.074219 0 11 0 C 4.925781 0 0 4.925781 0 11 C 0 17.074219 4.925781 22 11 22 Z M 11 5.132812 C 9.691406 5.132812 8.46875 5.554688 7.566406 6.390625 C 6.65625 7.238281 6.121094 8.460938 6.121094 9.96875 C 6.121094 11.140625 6.765625 12.425781 7.488281 13.511719 C 8.226562 14.625 9.117188 15.644531 9.746094 16.320312 C 10.429688 17.050781 11.570312 17.050781 12.253906 16.320312 C 12.882812 15.644531 13.773438 14.625 14.511719 13.511719 C 15.234375 12.425781 15.878906 11.140625 15.878906 9.96875 C 15.878906 8.460938 15.34375 7.238281 14.433594 6.390625 C 13.53125 5.554688 12.308594 5.132812 11 5.132812 Z M 11 8.183594 C 10.324219 8.183594 9.78125 8.730469 9.78125 9.402344 C 9.78125 10.078125 10.324219 10.625 11 10.625 C 11.675781 10.625 12.21875 10.078125 12.21875 9.402344 C 12.21875 8.730469 11.675781 8.183594 11 8.183594 Z M 8.558594 9.402344 C 8.558594 8.054688 9.652344 6.964844 11 6.964844 C 12.347656 6.964844 13.441406 8.054688 13.441406 9.402344 C 13.441406 10.75 12.347656 11.84375 11 11.84375 C 9.652344 11.84375 8.558594 10.75 8.558594 9.402344 Z M 8.558594 9.402344 "/>
</g>
</svg>
