<?xml version="1.0" encoding="UTF-8"?>
<svg xmlns="http://www.w3.org/2000/svg" xmlns:xlink="http://www.w3.org/1999/xlink" width="22px" height="22px" viewBox="0 0 22 22" version="1.1">
<g id="surface1">
<path style=" stroke:none;fill-rule:nonzero;fill:rgb(100%,19.215686%,19.215686%);fill-opacity:1;" d="M 11 0 C 4.925781 0 0 4.925781 0 11 C 0 17.074219 4.925781 22 11 22 C 17.074219 22 22 17.074219 22 11 C 22 4.925781 17.074219 0 11 0 Z M 4.296875 5.738281 L 17.691406 5.738281 C 17.707031 5.738281 17.71875 5.742188 17.730469 5.75 C 17.746094 5.757812 17.753906 5.769531 17.757812 5.785156 C 17.765625 5.800781 17.765625 5.8125 17.761719 5.828125 C 17.757812 5.84375 17.753906 5.855469 17.742188 5.867188 L 13.238281 10.140625 L 13.230469 10.148438 L 11.886719 11.421875 C 11.855469 11.453125 11.820312 11.484375 11.785156 11.511719 C 11.75 11.539062 11.714844 11.5625 11.679688 11.585938 C 11.640625 11.609375 11.601562 11.632812 11.5625 11.652344 C 11.523438 11.671875 11.484375 11.691406 11.441406 11.707031 C 11.402344 11.722656 11.359375 11.738281 11.316406 11.75 C 11.273438 11.761719 11.230469 11.773438 11.1875 11.78125 C 11.144531 11.789062 11.101562 11.796875 11.058594 11.800781 C 11.011719 11.804688 10.96875 11.804688 10.925781 11.804688 C 10.878906 11.804688 10.835938 11.804688 10.792969 11.796875 C 10.746094 11.792969 10.703125 11.789062 10.660156 11.777344 C 10.617188 11.769531 10.574219 11.757812 10.53125 11.746094 C 10.488281 11.734375 10.449219 11.71875 10.40625 11.703125 C 10.367188 11.683594 10.324219 11.667969 10.285156 11.644531 C 10.246094 11.625 10.210938 11.601562 10.171875 11.578125 C 10.136719 11.554688 10.101562 11.527344 10.066406 11.5 C 10.03125 11.472656 9.996094 11.445312 9.964844 11.414062 L 8.722656 10.207031 C 8.71875 10.203125 8.71875 10.203125 8.714844 10.199219 L 4.242188 5.867188 C 4.234375 5.855469 4.226562 5.84375 4.222656 5.828125 C 4.21875 5.8125 4.222656 5.796875 4.226562 5.785156 C 4.230469 5.769531 4.242188 5.757812 4.253906 5.75 C 4.265625 5.742188 4.28125 5.738281 4.296875 5.738281 Z M 3.664062 15.523438 L 3.664062 6.328125 C 3.664062 6.316406 3.667969 6.300781 3.675781 6.289062 C 3.683594 6.277344 3.695312 6.265625 3.710938 6.261719 C 3.722656 6.253906 3.738281 6.253906 3.75 6.257812 C 3.765625 6.261719 3.777344 6.265625 3.789062 6.277344 L 8.039062 10.394531 C 8.046875 10.402344 8.050781 10.410156 8.054688 10.417969 C 8.058594 10.425781 8.058594 10.4375 8.0625 10.445312 C 8.0625 10.453125 8.058594 10.464844 8.058594 10.472656 C 8.054688 10.480469 8.050781 10.488281 8.042969 10.496094 L 3.796875 15.570312 C 3.785156 15.582031 3.773438 15.589844 3.757812 15.59375 C 3.742188 15.597656 3.726562 15.597656 3.710938 15.59375 C 3.699219 15.585938 3.6875 15.578125 3.675781 15.566406 C 3.667969 15.550781 3.664062 15.539062 3.664062 15.523438 Z M 17.828125 16.261719 L 4.171875 16.261719 C 4.15625 16.261719 4.144531 16.257812 4.132812 16.25 C 4.121094 16.242188 4.109375 16.230469 4.105469 16.21875 C 4.097656 16.207031 4.097656 16.191406 4.097656 16.179688 C 4.101562 16.164062 4.105469 16.152344 4.113281 16.140625 L 8.476562 10.929688 C 8.484375 10.921875 8.492188 10.917969 8.5 10.914062 C 8.507812 10.910156 8.519531 10.90625 8.53125 10.90625 C 8.539062 10.90625 8.550781 10.90625 8.558594 10.910156 C 8.570312 10.914062 8.578125 10.917969 8.585938 10.925781 L 9.539062 11.851562 C 9.632812 11.941406 9.730469 12.019531 9.835938 12.089844 C 9.945312 12.160156 10.058594 12.21875 10.175781 12.269531 C 10.292969 12.316406 10.414062 12.351562 10.539062 12.378906 C 10.664062 12.402344 10.792969 12.414062 10.921875 12.414062 L 10.929688 12.414062 C 11.058594 12.414062 11.183594 12.402344 11.308594 12.378906 C 11.433594 12.355469 11.554688 12.320312 11.671875 12.273438 C 11.789062 12.226562 11.902344 12.167969 12.007812 12.101562 C 12.117188 12.03125 12.214844 11.953125 12.308594 11.867188 L 13.363281 10.863281 C 13.371094 10.855469 13.378906 10.851562 13.390625 10.847656 C 13.398438 10.84375 13.410156 10.84375 13.417969 10.84375 C 13.429688 10.84375 13.4375 10.847656 13.449219 10.851562 C 13.457031 10.855469 13.464844 10.863281 13.472656 10.871094 L 17.882812 16.140625 C 17.894531 16.152344 17.898438 16.164062 17.902344 16.179688 C 17.902344 16.191406 17.902344 16.207031 17.894531 16.21875 C 17.890625 16.230469 17.878906 16.242188 17.867188 16.25 C 17.855469 16.257812 17.84375 16.261719 17.828125 16.261719 Z M 18.335938 15.523438 C 18.335938 15.539062 18.332031 15.550781 18.324219 15.566406 C 18.3125 15.578125 18.300781 15.585938 18.285156 15.59375 C 18.273438 15.597656 18.257812 15.597656 18.242188 15.59375 C 18.226562 15.589844 18.214844 15.582031 18.203125 15.570312 L 13.910156 10.441406 C 13.902344 10.433594 13.898438 10.425781 13.894531 10.417969 C 13.894531 10.40625 13.890625 10.398438 13.890625 10.390625 C 13.894531 10.378906 13.894531 10.371094 13.898438 10.363281 C 13.902344 10.351562 13.910156 10.347656 13.914062 10.339844 L 18.210938 6.261719 C 18.222656 6.253906 18.234375 6.246094 18.25 6.242188 C 18.261719 6.242188 18.277344 6.242188 18.292969 6.25 C 18.304688 6.253906 18.316406 6.265625 18.324219 6.277344 C 18.332031 6.289062 18.335938 6.300781 18.335938 6.316406 Z M 18.335938 15.523438 "/>
</g>
</svg>
