<?xml version="1.0" encoding="UTF-8"?>
<svg xmlns="http://www.w3.org/2000/svg" xmlns:xlink="http://www.w3.org/1999/xlink" width="22px" height="22px" viewBox="0 0 22 22" version="1.1">
<g id="surface1">
<path style=" stroke:none;fill-rule:nonzero;fill:rgb(100%,19.215686%,19.215686%);fill-opacity:1;" d="M 11 0.0078125 C 10.820312 0.0078125 10.640625 0.0117188 10.460938 0.0195312 C 10.28125 0.03125 10.101562 0.0429688 9.921875 0.0625 C 9.742188 0.078125 9.5625 0.101562 9.386719 0.128906 C 9.207031 0.152344 9.03125 0.183594 8.851562 0.21875 C 8.675781 0.253906 8.5 0.296875 8.328125 0.339844 C 8.152344 0.382812 7.976562 0.429688 7.804688 0.484375 C 7.632812 0.535156 7.460938 0.59375 7.292969 0.652344 C 7.125 0.714844 6.957031 0.777344 6.789062 0.847656 C 6.621094 0.917969 6.457031 0.988281 6.296875 1.066406 C 6.132812 1.144531 5.972656 1.226562 5.8125 1.308594 C 5.65625 1.394531 5.496094 1.484375 5.34375 1.578125 C 5.1875 1.667969 5.035156 1.765625 4.886719 1.867188 C 4.738281 1.964844 4.589844 2.070312 4.445312 2.175781 C 4.300781 2.285156 4.160156 2.394531 4.019531 2.507812 C 3.878906 2.625 3.746094 2.742188 3.609375 2.863281 C 3.476562 2.984375 3.347656 3.105469 3.21875 3.234375 C 3.09375 3.363281 2.96875 3.492188 2.847656 3.625 C 2.726562 3.757812 2.609375 3.894531 2.496094 4.035156 C 2.378906 4.175781 2.269531 4.316406 2.160156 4.460938 C 2.054688 4.605469 1.949219 4.753906 1.851562 4.902344 C 1.75 5.050781 1.65625 5.203125 1.5625 5.359375 C 1.46875 5.511719 1.378906 5.667969 1.296875 5.828125 C 1.210938 5.988281 1.128906 6.148438 1.050781 6.3125 C 0.976562 6.472656 0.902344 6.636719 0.832031 6.804688 C 0.765625 6.96875 0.699219 7.136719 0.636719 7.308594 C 0.578125 7.476562 0.519531 7.648438 0.46875 7.820312 C 0.417969 7.992188 0.367188 8.167969 0.324219 8.339844 C 0.28125 8.515625 0.242188 8.691406 0.207031 8.867188 C 0.171875 9.046875 0.140625 9.222656 0.113281 9.398438 C 0.0859375 9.578125 0.0625 9.757812 0.046875 9.9375 C 0.0273438 10.117188 0.015625 10.296875 0.00390625 10.476562 C -0.00390625 10.65625 -0.0078125 10.835938 -0.0078125 11.015625 C 0.597656 25.617188 21.40625 25.613281 22.007812 11.015625 C 22.007812 10.835938 22.003906 10.65625 21.996094 10.476562 C 21.984375 10.296875 21.972656 10.117188 21.953125 9.9375 C 21.9375 9.757812 21.914062 9.578125 21.886719 9.398438 C 21.859375 9.222656 21.828125 9.042969 21.792969 8.867188 C 21.757812 8.691406 21.71875 8.515625 21.675781 8.339844 C 21.632812 8.167969 21.582031 7.992188 21.53125 7.820312 C 21.480469 7.648438 21.421875 7.476562 21.363281 7.308594 C 21.300781 7.136719 21.234375 6.96875 21.167969 6.804688 C 21.097656 6.636719 21.023438 6.472656 20.949219 6.3125 C 20.871094 6.148438 20.789062 5.988281 20.703125 5.828125 C 20.621094 5.667969 20.53125 5.511719 20.4375 5.359375 C 20.34375 5.203125 20.25 5.050781 20.148438 4.902344 C 20.050781 4.753906 19.945312 4.605469 19.839844 4.460938 C 19.730469 4.316406 19.621094 4.175781 19.503906 4.035156 C 19.390625 3.894531 19.273438 3.757812 19.152344 3.625 C 19.03125 3.492188 18.90625 3.363281 18.78125 3.234375 C 18.652344 3.105469 18.523438 2.984375 18.390625 2.863281 C 18.253906 2.742188 18.121094 2.625 17.980469 2.507812 C 17.839844 2.394531 17.699219 2.285156 17.554688 2.175781 C 17.410156 2.070312 17.261719 1.964844 17.113281 1.867188 C 16.964844 1.765625 16.8125 1.667969 16.65625 1.578125 C 16.503906 1.484375 16.34375 1.394531 16.1875 1.308594 C 16.027344 1.226562 15.867188 1.144531 15.703125 1.066406 C 15.542969 0.988281 15.378906 0.917969 15.210938 0.847656 C 15.042969 0.777344 14.875 0.714844 14.707031 0.652344 C 14.539062 0.59375 14.367188 0.535156 14.195312 0.484375 C 14.023438 0.429688 13.847656 0.382812 13.671875 0.339844 C 13.5 0.296875 13.324219 0.253906 13.148438 0.21875 C 12.96875 0.183594 12.792969 0.152344 12.613281 0.128906 C 12.4375 0.101562 12.257812 0.078125 12.078125 0.0625 C 11.898438 0.0429688 11.71875 0.03125 11.539062 0.0195312 C 11.359375 0.0117188 11.179688 0.0078125 11 0.0078125 Z M 14.460938 18.144531 C 8.546875 18.273438 3.375 12.8125 3.835938 6.898438 C 3.75 4.640625 6.03125 3.417969 7.996094 4.007812 C 8.03125 4.015625 8.0625 4.03125 8.089844 4.046875 C 8.121094 4.066406 8.144531 4.089844 8.167969 4.113281 C 8.191406 4.136719 8.207031 4.167969 8.222656 4.199219 C 8.238281 4.226562 8.246094 4.261719 8.253906 4.292969 L 8.96875 8.820312 C 8.953125 9.367188 8.03125 9.660156 7.585938 9.800781 C 7.675781 10.066406 7.78125 10.324219 7.902344 10.574219 C 8.023438 10.828125 8.15625 11.074219 8.304688 11.3125 C 8.453125 11.550781 8.613281 11.777344 8.785156 11.996094 C 8.960938 12.214844 9.148438 12.425781 9.34375 12.621094 C 9.542969 12.820312 9.75 13.003906 9.96875 13.179688 C 10.1875 13.351562 10.417969 13.515625 10.65625 13.660156 C 10.890625 13.808594 11.136719 13.945312 11.390625 14.0625 C 11.644531 14.183594 11.902344 14.289062 12.167969 14.378906 C 12.3125 13.917969 12.59375 13.011719 13.144531 12.992188 L 17.667969 13.710938 C 17.9375 13.730469 17.984375 14.074219 18.058594 14.269531 C 18.703125 16.535156 16.671875 18.417969 14.460938 18.144531 Z M 14.460938 18.144531 "/>
</g>
</svg>
