<svg xmlns="http://www.w3.org/2000/svg" xmlns:xlink="http://www.w3.org/1999/xlink" width="200" zoomAndPan="magnify" viewBox="0 0 150 74.999997" height="100" preserveAspectRatio="xMidYMid meet" version="1.0"><defs><g/><clipPath id="8bd5d48729"><path d="M 66.269531 31.507812 L 72.746094 31.507812 L 72.746094 42.59375 L 66.269531 42.59375 Z M 66.269531 31.507812 " clip-rule="nonzero"/></clipPath><clipPath id="229f08173c"><path d="M 68 31 L 72 31 L 72 43 L 68 43 Z M 68 31 " clip-rule="nonzero"/></clipPath><clipPath id="e500b9725f"><path d="M 66.273438 33.152344 L 71.238281 31.453125 L 74.394531 40.679688 L 69.425781 42.378906 Z M 66.273438 33.152344 " clip-rule="nonzero"/></clipPath><clipPath id="62f4e81c3c"><path d="M 66.273438 33.152344 L 71.238281 31.453125 L 74.394531 40.679688 L 69.425781 42.378906 Z M 66.273438 33.152344 " clip-rule="nonzero"/></clipPath><clipPath id="b4dc694623"><path d="M 68 32 L 71 32 L 71 43 L 68 43 Z M 68 32 " clip-rule="nonzero"/></clipPath><clipPath id="11e65abbbe"><path d="M 66.273438 33.152344 L 71.238281 31.453125 L 74.394531 40.679688 L 69.425781 42.378906 Z M 66.273438 33.152344 " clip-rule="nonzero"/></clipPath><clipPath id="a6ca8e38a5"><path d="M 66.273438 33.152344 L 71.238281 31.453125 L 74.394531 40.679688 L 69.425781 42.378906 Z M 66.273438 33.152344 " clip-rule="nonzero"/></clipPath><clipPath id="96e11dbd7e"><path d="M 131.535156 40.980469 L 137.535156 40.980469 L 137.535156 46.980469 L 131.535156 46.980469 Z M 131.535156 40.980469 " clip-rule="nonzero"/></clipPath></defs><g fill="#000000" fill-opacity="1"><g transform="translate(18.174151, 44.408975)"><g><path d="M 13.125 -15.296875 L 13.125 0 L 9.390625 0 L 9.390625 -1.109375 C 8.671875 -0.242188 7.582031 0.1875 6.125 0.1875 C 5.101562 0.1875 4.171875 -0.046875 3.328125 -0.515625 C 2.492188 -0.992188 1.832031 -1.671875 1.34375 -2.546875 C 0.863281 -3.429688 0.625 -4.453125 0.625 -5.609375 C 0.625 -6.765625 0.863281 -7.773438 1.34375 -8.640625 C 1.832031 -9.515625 2.492188 -10.1875 3.328125 -10.65625 C 4.171875 -11.125 5.101562 -11.359375 6.125 -11.359375 C 7.457031 -11.359375 8.488281 -10.972656 9.21875 -10.203125 L 9.21875 -15.296875 Z M 6.953125 -2.921875 C 7.617188 -2.921875 8.171875 -3.15625 8.609375 -3.625 C 9.054688 -4.101562 9.28125 -4.765625 9.28125 -5.609375 C 9.28125 -6.429688 9.0625 -7.078125 8.625 -7.546875 C 8.1875 -8.015625 7.628906 -8.25 6.953125 -8.25 C 6.265625 -8.25 5.695312 -8.015625 5.25 -7.546875 C 4.8125 -7.078125 4.59375 -6.429688 4.59375 -5.609375 C 4.59375 -4.765625 4.8125 -4.101562 5.25 -3.625 C 5.695312 -3.15625 6.265625 -2.921875 6.953125 -2.921875 Z M 6.953125 -2.921875 "/></g></g></g><g fill="#000000" fill-opacity="1"><g transform="translate(30.453993, 44.408975)"><g><path d="M 8.53125 -11.359375 C 9.914062 -11.359375 11.03125 -10.941406 11.875 -10.109375 C 12.726562 -9.285156 13.15625 -8.046875 13.15625 -6.390625 L 13.15625 0 L 9.234375 0 L 9.234375 -5.75 C 9.234375 -7.269531 8.625 -8.03125 7.40625 -8.03125 C 6.726562 -8.03125 6.1875 -7.8125 5.78125 -7.375 C 5.375 -6.9375 5.171875 -6.28125 5.171875 -5.40625 L 5.171875 0 L 1.25 0 L 1.25 -15.296875 L 5.171875 -15.296875 L 5.171875 -10.140625 C 5.597656 -10.535156 6.097656 -10.835938 6.671875 -11.046875 C 7.253906 -11.253906 7.875 -11.359375 8.53125 -11.359375 Z M 8.53125 -11.359375 "/></g></g></g><g fill="#000000" fill-opacity="1"><g transform="translate(42.692627, 44.408975)"><g/></g></g><g fill="#000000" fill-opacity="1"><g transform="translate(46.58674, 44.408975)"><g><path d="M 5.3125 0.1875 C 4.382812 0.1875 3.46875 0.0820312 2.5625 -0.125 C 1.65625 -0.34375 0.925781 -0.625 0.375 -0.96875 L 1.546875 -3.640625 C 2.054688 -3.328125 2.660156 -3.078125 3.359375 -2.890625 C 4.054688 -2.710938 4.75 -2.625 5.4375 -2.625 C 6.070312 -2.625 6.519531 -2.6875 6.78125 -2.8125 C 7.050781 -2.945312 7.1875 -3.132812 7.1875 -3.375 C 7.1875 -3.625 7.023438 -3.800781 6.703125 -3.90625 C 6.378906 -4.007812 5.867188 -4.109375 5.171875 -4.203125 C 4.273438 -4.316406 3.515625 -4.460938 2.890625 -4.640625 C 2.265625 -4.816406 1.722656 -5.144531 1.265625 -5.625 C 0.816406 -6.101562 0.59375 -6.773438 0.59375 -7.640625 C 0.59375 -8.359375 0.804688 -8.992188 1.234375 -9.546875 C 1.660156 -10.109375 2.28125 -10.550781 3.09375 -10.875 C 3.914062 -11.195312 4.894531 -11.359375 6.03125 -11.359375 C 6.84375 -11.359375 7.644531 -11.273438 8.4375 -11.109375 C 9.238281 -10.941406 9.910156 -10.707031 10.453125 -10.40625 L 9.28125 -7.75 C 8.289062 -8.300781 7.21875 -8.578125 6.0625 -8.578125 C 5.4375 -8.578125 4.976562 -8.503906 4.6875 -8.359375 C 4.40625 -8.210938 4.265625 -8.023438 4.265625 -7.796875 C 4.265625 -7.535156 4.421875 -7.351562 4.734375 -7.25 C 5.054688 -7.144531 5.582031 -7.035156 6.3125 -6.921875 C 7.226562 -6.785156 7.988281 -6.628906 8.59375 -6.453125 C 9.195312 -6.273438 9.722656 -5.945312 10.171875 -5.46875 C 10.617188 -5 10.84375 -4.335938 10.84375 -3.484375 C 10.84375 -2.785156 10.628906 -2.15625 10.203125 -1.59375 C 9.773438 -1.039062 9.144531 -0.601562 8.3125 -0.28125 C 7.476562 0.03125 6.476562 0.1875 5.3125 0.1875 Z M 5.3125 0.1875 "/></g></g></g><g fill="#000000" fill-opacity="1"><g transform="translate(55.755413, 44.408975)"><g><path d="M 6.859375 0.1875 C 5.660156 0.1875 4.582031 -0.0546875 3.625 -0.546875 C 2.664062 -1.046875 1.914062 -1.734375 1.375 -2.609375 C 0.832031 -3.492188 0.5625 -4.492188 0.5625 -5.609375 C 0.5625 -6.703125 0.832031 -7.6875 1.375 -8.5625 C 1.914062 -9.445312 2.660156 -10.132812 3.609375 -10.625 C 4.566406 -11.113281 5.648438 -11.359375 6.859375 -11.359375 C 8.066406 -11.359375 9.148438 -11.113281 10.109375 -10.625 C 11.078125 -10.132812 11.828125 -9.453125 12.359375 -8.578125 C 12.898438 -7.710938 13.171875 -6.722656 13.171875 -5.609375 C 13.171875 -4.492188 12.898438 -3.492188 12.359375 -2.609375 C 11.828125 -1.734375 11.078125 -1.046875 10.109375 -0.546875 C 9.148438 -0.0546875 8.066406 0.1875 6.859375 0.1875 Z M 6.859375 -2.921875 C 7.546875 -2.921875 8.109375 -3.15625 8.546875 -3.625 C 8.992188 -4.101562 9.21875 -4.765625 9.21875 -5.609375 C 9.21875 -6.429688 8.992188 -7.078125 8.546875 -7.546875 C 8.109375 -8.015625 7.546875 -8.25 6.859375 -8.25 C 6.171875 -8.25 5.609375 -8.015625 5.171875 -7.546875 C 4.734375 -7.078125 4.515625 -6.429688 4.515625 -5.609375 C 4.515625 -4.765625 4.734375 -4.101562 5.171875 -3.625 C 5.609375 -3.15625 6.171875 -2.921875 6.859375 -2.921875 Z M 6.859375 -2.921875 "/></g></g></g><g fill="#000000" fill-opacity="1"><g transform="translate(67.375933, 44.408975)"><g><path d="M 1.25 -15.296875 L 5.171875 -15.296875 L 5.171875 0 L 1.25 0 Z M 1.25 -15.296875 "/></g></g></g><g fill="#000000" fill-opacity="1"><g transform="translate(71.723327, 44.408975)"><g><path d="M 13 -11.171875 L 13 0 L 9.28125 0 L 9.28125 -1.203125 C 8.863281 -0.742188 8.363281 -0.394531 7.78125 -0.15625 C 7.207031 0.0703125 6.597656 0.1875 5.953125 0.1875 C 4.515625 0.1875 3.363281 -0.238281 2.5 -1.09375 C 1.644531 -1.945312 1.21875 -3.222656 1.21875 -4.921875 L 1.21875 -11.171875 L 5.125 -11.171875 L 5.125 -5.5625 C 5.125 -4.726562 5.28125 -4.117188 5.59375 -3.734375 C 5.914062 -3.347656 6.378906 -3.15625 6.984375 -3.15625 C 7.597656 -3.15625 8.101562 -3.367188 8.5 -3.796875 C 8.894531 -4.234375 9.09375 -4.898438 9.09375 -5.796875 L 9.09375 -11.171875 Z M 13 -11.171875 "/></g></g></g><g fill="#000000" fill-opacity="1"><g transform="translate(83.879549, 44.408975)"><g><path d="M 8.96875 -0.453125 C 8.632812 -0.242188 8.226562 -0.0859375 7.75 0.015625 C 7.28125 0.128906 6.78125 0.1875 6.25 0.1875 C 4.789062 0.1875 3.664062 -0.164062 2.875 -0.875 C 2.09375 -1.59375 1.703125 -2.660156 1.703125 -4.078125 L 1.703125 -7.828125 L 0.078125 -7.828125 L 0.078125 -10.765625 L 1.703125 -10.765625 L 1.703125 -13.65625 L 5.625 -13.65625 L 5.625 -10.765625 L 8.1875 -10.765625 L 8.1875 -7.828125 L 5.625 -7.828125 L 5.625 -4.125 C 5.625 -3.726562 5.726562 -3.414062 5.9375 -3.1875 C 6.15625 -2.957031 6.441406 -2.84375 6.796875 -2.84375 C 7.253906 -2.84375 7.65625 -2.957031 8 -3.1875 Z M 8.96875 -0.453125 "/></g></g></g><g fill="#000000" fill-opacity="1"><g transform="translate(90.987846, 44.408975)"><g><path d="M 1.25 -11.171875 L 5.171875 -11.171875 L 5.171875 0 L 1.25 0 Z M 3.203125 -12.40625 C 2.492188 -12.40625 1.914062 -12.601562 1.46875 -13 C 1.03125 -13.40625 0.8125 -13.898438 0.8125 -14.484375 C 0.8125 -15.078125 1.03125 -15.570312 1.46875 -15.96875 C 1.914062 -16.363281 2.492188 -16.5625 3.203125 -16.5625 C 3.921875 -16.5625 4.5 -16.375 4.9375 -16 C 5.375 -15.625 5.59375 -15.140625 5.59375 -14.546875 C 5.59375 -13.929688 5.375 -13.421875 4.9375 -13.015625 C 4.5 -12.609375 3.921875 -12.40625 3.203125 -12.40625 Z M 3.203125 -12.40625 "/></g></g></g><g fill="#000000" fill-opacity="1"><g transform="translate(95.33524, 44.408975)"><g><path d="M 6.859375 0.1875 C 5.660156 0.1875 4.582031 -0.0546875 3.625 -0.546875 C 2.664062 -1.046875 1.914062 -1.734375 1.375 -2.609375 C 0.832031 -3.492188 0.5625 -4.492188 0.5625 -5.609375 C 0.5625 -6.703125 0.832031 -7.6875 1.375 -8.5625 C 1.914062 -9.445312 2.660156 -10.132812 3.609375 -10.625 C 4.566406 -11.113281 5.648438 -11.359375 6.859375 -11.359375 C 8.066406 -11.359375 9.148438 -11.113281 10.109375 -10.625 C 11.078125 -10.132812 11.828125 -9.453125 12.359375 -8.578125 C 12.898438 -7.710938 13.171875 -6.722656 13.171875 -5.609375 C 13.171875 -4.492188 12.898438 -3.492188 12.359375 -2.609375 C 11.828125 -1.734375 11.078125 -1.046875 10.109375 -0.546875 C 9.148438 -0.0546875 8.066406 0.1875 6.859375 0.1875 Z M 6.859375 -2.921875 C 7.546875 -2.921875 8.109375 -3.15625 8.546875 -3.625 C 8.992188 -4.101562 9.21875 -4.765625 9.21875 -5.609375 C 9.21875 -6.429688 8.992188 -7.078125 8.546875 -7.546875 C 8.109375 -8.015625 7.546875 -8.25 6.859375 -8.25 C 6.171875 -8.25 5.609375 -8.015625 5.171875 -7.546875 C 4.734375 -7.078125 4.515625 -6.429688 4.515625 -5.609375 C 4.515625 -4.765625 4.734375 -4.101562 5.171875 -3.625 C 5.609375 -3.15625 6.171875 -2.921875 6.859375 -2.921875 Z M 6.859375 -2.921875 "/></g></g></g><g fill="#000000" fill-opacity="1"><g transform="translate(106.95576, 44.408975)"><g><path d="M 8.53125 -11.359375 C 9.914062 -11.359375 11.03125 -10.941406 11.875 -10.109375 C 12.726562 -9.285156 13.15625 -8.046875 13.15625 -6.390625 L 13.15625 0 L 9.234375 0 L 9.234375 -5.75 C 9.234375 -7.269531 8.625 -8.03125 7.40625 -8.03125 C 6.726562 -8.03125 6.1875 -7.8125 5.78125 -7.375 C 5.375 -6.9375 5.171875 -6.28125 5.171875 -5.40625 L 5.171875 0 L 1.25 0 L 1.25 -11.171875 L 4.984375 -11.171875 L 4.984375 -9.953125 C 5.421875 -10.410156 5.941406 -10.757812 6.546875 -11 C 7.148438 -11.238281 7.8125 -11.359375 8.53125 -11.359375 Z M 8.53125 -11.359375 "/></g></g></g><g fill="#000000" fill-opacity="1"><g transform="translate(119.194396, 44.408975)"><g><path d="M 5.3125 0.1875 C 4.382812 0.1875 3.46875 0.0820312 2.5625 -0.125 C 1.65625 -0.34375 0.925781 -0.625 0.375 -0.96875 L 1.546875 -3.640625 C 2.054688 -3.328125 2.660156 -3.078125 3.359375 -2.890625 C 4.054688 -2.710938 4.75 -2.625 5.4375 -2.625 C 6.070312 -2.625 6.519531 -2.6875 6.78125 -2.8125 C 7.050781 -2.945312 7.1875 -3.132812 7.1875 -3.375 C 7.1875 -3.625 7.023438 -3.800781 6.703125 -3.90625 C 6.378906 -4.007812 5.867188 -4.109375 5.171875 -4.203125 C 4.273438 -4.316406 3.515625 -4.460938 2.890625 -4.640625 C 2.265625 -4.816406 1.722656 -5.144531 1.265625 -5.625 C 0.816406 -6.101562 0.59375 -6.773438 0.59375 -7.640625 C 0.59375 -8.359375 0.804688 -8.992188 1.234375 -9.546875 C 1.660156 -10.109375 2.28125 -10.550781 3.09375 -10.875 C 3.914062 -11.195312 4.894531 -11.359375 6.03125 -11.359375 C 6.84375 -11.359375 7.644531 -11.273438 8.4375 -11.109375 C 9.238281 -10.941406 9.910156 -10.707031 10.453125 -10.40625 L 9.28125 -7.75 C 8.289062 -8.300781 7.21875 -8.578125 6.0625 -8.578125 C 5.4375 -8.578125 4.976562 -8.503906 4.6875 -8.359375 C 4.40625 -8.210938 4.265625 -8.023438 4.265625 -7.796875 C 4.265625 -7.535156 4.421875 -7.351562 4.734375 -7.25 C 5.054688 -7.144531 5.582031 -7.035156 6.3125 -6.921875 C 7.226562 -6.785156 7.988281 -6.628906 8.59375 -6.453125 C 9.195312 -6.273438 9.722656 -5.945312 10.171875 -5.46875 C 10.617188 -5 10.84375 -4.335938 10.84375 -3.484375 C 10.84375 -2.785156 10.628906 -2.15625 10.203125 -1.59375 C 9.773438 -1.039062 9.144531 -0.601562 8.3125 -0.28125 C 7.476562 0.03125 6.476562 0.1875 5.3125 0.1875 Z M 5.3125 0.1875 "/></g></g></g><g clip-path="url(#8bd5d48729)"><path fill="#000000" d="M 66.269531 31.507812 L 72.746094 31.507812 L 72.746094 42.585938 L 66.269531 42.585938 Z M 66.269531 31.507812 " fill-opacity="1" fill-rule="nonzero"/></g><g clip-path="url(#229f08173c)"><g clip-path="url(#e500b9725f)"><g clip-path="url(#62f4e81c3c)"><path fill="#ff3131" d="M 68.65625 32.339844 L 71.085938 31.507812 L 70.273438 35.429688 L 71.699219 34.941406 L 69.507812 42.613281 L 69.789062 37.148438 L 68.265625 37.753906 Z M 68.65625 32.339844 " fill-opacity="1" fill-rule="nonzero"/></g></g></g><g clip-path="url(#b4dc694623)"><g clip-path="url(#11e65abbbe)"><g clip-path="url(#a6ca8e38a5)"><path fill="#000000" d="M 68.65625 32.339844 L 69.074219 32.195312 L 68.265625 37.753906 Z M 69.507812 42.613281 L 70.082031 37.046875 L 69.789062 37.148438 Z M 69.507812 42.613281 " fill-opacity="1" fill-rule="nonzero"/></g></g></g><g clip-path="url(#96e11dbd7e)"><path fill="#000000" d="M 134.535156 40.980469 C 136.191406 40.980469 137.535156 42.324219 137.535156 43.980469 C 137.535156 45.636719 136.191406 46.980469 134.535156 46.980469 C 132.878906 46.980469 131.535156 45.636719 131.535156 43.980469 C 131.535156 42.324219 132.878906 40.980469 134.535156 40.980469 Z M 134.535156 40.980469 " fill-opacity="1" fill-rule="evenodd"/></g></svg>