<svg version="1.0" preserveAspectRatio="xMidYMid meet" viewBox="5.7 59.69999920400001 140.7 32.399999568" zoomAndPan="magnify" xmlns:xlink="http://www.w3.org/1999/xlink" xmlns="http://www.w3.org/2000/svg" style="max-height: 500px" width="140.7" height="32.399999568"><defs><g/><clipPath id="e94044a0b4"><path clip-rule="nonzero" d="M 62.683594 68.761719 L 69.972656 68.761719 L 69.972656 81.238281 L 62.683594 81.238281 Z M 62.683594 68.761719"/></clipPath><clipPath id="cfdc3010df"><path clip-rule="nonzero" d="M 64 68 L 69 68 L 69 82 L 64 82 Z M 64 68"/></clipPath><clipPath id="7fc2b43f4c"><path clip-rule="nonzero" d="M 62.6875 70.613281 L 68.363281 68.671875 L 72.003906 79.316406 L 66.328125 81.257812 Z M 62.6875 70.613281"/></clipPath><clipPath id="791e02b2c8"><path clip-rule="nonzero" d="M 62.6875 70.613281 L 68.363281 68.671875 L 72.003906 79.316406 L 66.328125 81.257812 Z M 62.6875 70.613281"/></clipPath><clipPath id="2d331e2a29"><path clip-rule="nonzero" d="M 64 69 L 67 69 L 67 82 L 64 82 Z M 64 69"/></clipPath><clipPath id="462d332694"><path clip-rule="nonzero" d="M 62.6875 70.613281 L 68.363281 68.671875 L 72.003906 79.316406 L 66.328125 81.257812 Z M 62.6875 70.613281"/></clipPath><clipPath id="9facf988fa"><path clip-rule="nonzero" d="M 62.6875 70.613281 L 68.363281 68.671875 L 72.003906 79.316406 L 66.328125 81.257812 Z M 62.6875 70.613281"/></clipPath><clipPath id="f7f327f75f"><path clip-rule="nonzero" d="M 136.128906 78.714844 L 142.878906 78.714844 L 142.878906 85.464844 L 136.128906 85.464844 Z M 136.128906 78.714844"/></clipPath></defs><g fill-opacity="1" fill="#ffffff"><g transform="translate(8.562743, 83.280419)"><g><path d="M 14.765625 -17.203125 L 14.765625 0 L 10.578125 0 L 10.578125 -1.25 C 9.753906 -0.28125 8.523438 0.203125 6.890625 0.203125 C 5.742188 0.203125 4.695312 -0.0625 3.75 -0.59375 C 2.8125 -1.125 2.066406 -1.882812 1.515625 -2.875 C 0.972656 -3.863281 0.703125 -5.007812 0.703125 -6.3125 C 0.703125 -7.601562 0.972656 -8.738281 1.515625 -9.71875 C 2.066406 -10.707031 2.8125 -11.460938 3.75 -11.984375 C 4.695312 -12.515625 5.742188 -12.78125 6.890625 -12.78125 C 8.390625 -12.78125 9.546875 -12.347656 10.359375 -11.484375 L 10.359375 -17.203125 Z M 7.8125 -3.296875 C 8.570312 -3.296875 9.195312 -3.5625 9.6875 -4.09375 C 10.1875 -4.625 10.4375 -5.363281 10.4375 -6.3125 C 10.4375 -7.238281 10.191406 -7.960938 9.703125 -8.484375 C 9.210938 -9.015625 8.582031 -9.28125 7.8125 -9.28125 C 7.039062 -9.28125 6.40625 -9.015625 5.90625 -8.484375 C 5.414062 -7.960938 5.171875 -7.238281 5.171875 -6.3125 C 5.171875 -5.363281 5.414062 -4.625 5.90625 -4.09375 C 6.40625 -3.5625 7.039062 -3.296875 7.8125 -3.296875 Z M 7.8125 -3.296875"/></g></g></g><g fill-opacity="1" fill="#ffffff"><g transform="translate(22.381139, 83.280419)"><g><path d="M 9.59375 -12.78125 C 11.15625 -12.78125 12.410156 -12.316406 13.359375 -11.390625 C 14.316406 -10.460938 14.796875 -9.0625 14.796875 -7.1875 L 14.796875 0 L 10.390625 0 L 10.390625 -6.46875 C 10.390625 -8.1875 9.703125 -9.046875 8.328125 -9.046875 C 7.566406 -9.046875 6.957031 -8.796875 6.5 -8.296875 C 6.039062 -7.804688 5.8125 -7.066406 5.8125 -6.078125 L 5.8125 0 L 1.421875 0 L 1.421875 -17.203125 L 5.8125 -17.203125 L 5.8125 -11.40625 C 6.289062 -11.851562 6.851562 -12.191406 7.5 -12.421875 C 8.15625 -12.660156 8.851562 -12.78125 9.59375 -12.78125 Z M 9.59375 -12.78125"/></g></g></g><g fill-opacity="1" fill="#ffffff"><g transform="translate(36.153166, 83.280419)"><g/></g></g><g fill-opacity="1" fill="#ffffff"><g transform="translate(40.535175, 83.280419)"><g><path d="M 5.984375 0.203125 C 4.929688 0.203125 3.894531 0.0820312 2.875 -0.15625 C 1.851562 -0.394531 1.035156 -0.707031 0.421875 -1.09375 L 1.734375 -4.109375 C 2.304688 -3.753906 2.988281 -3.46875 3.78125 -3.25 C 4.570312 -3.039062 5.351562 -2.9375 6.125 -2.9375 C 6.832031 -2.9375 7.335938 -3.007812 7.640625 -3.15625 C 7.941406 -3.3125 8.09375 -3.523438 8.09375 -3.796875 C 8.09375 -4.078125 7.910156 -4.273438 7.546875 -4.390625 C 7.179688 -4.503906 6.601562 -4.617188 5.8125 -4.734375 C 4.8125 -4.859375 3.957031 -5.019531 3.25 -5.21875 C 2.550781 -5.414062 1.945312 -5.785156 1.4375 -6.328125 C 0.925781 -6.867188 0.671875 -7.628906 0.671875 -8.609375 C 0.671875 -9.410156 0.910156 -10.125 1.390625 -10.75 C 1.867188 -11.375 2.566406 -11.867188 3.484375 -12.234375 C 4.410156 -12.597656 5.515625 -12.78125 6.796875 -12.78125 C 7.703125 -12.78125 8.601562 -12.6875 9.5 -12.5 C 10.40625 -12.3125 11.15625 -12.046875 11.75 -11.703125 L 10.4375 -8.71875 C 9.320312 -9.332031 8.113281 -9.640625 6.8125 -9.640625 C 6.125 -9.640625 5.613281 -9.554688 5.28125 -9.390625 C 4.957031 -9.234375 4.796875 -9.023438 4.796875 -8.765625 C 4.796875 -8.472656 4.972656 -8.265625 5.328125 -8.140625 C 5.679688 -8.023438 6.269531 -7.910156 7.09375 -7.796875 C 8.132812 -7.640625 8.992188 -7.457031 9.671875 -7.25 C 10.347656 -7.050781 10.9375 -6.6875 11.4375 -6.15625 C 11.945312 -5.625 12.203125 -4.878906 12.203125 -3.921875 C 12.203125 -3.128906 11.960938 -2.421875 11.484375 -1.796875 C 11.003906 -1.171875 10.296875 -0.679688 9.359375 -0.328125 C 8.421875 0.0234375 7.296875 0.203125 5.984375 0.203125 Z M 5.984375 0.203125"/></g></g></g><g fill-opacity="1" fill="#ffffff"><g transform="translate(50.852602, 83.280419)"><g><path d="M 7.71875 0.203125 C 6.375 0.203125 5.160156 -0.0703125 4.078125 -0.625 C 2.992188 -1.175781 2.144531 -1.945312 1.53125 -2.9375 C 0.925781 -3.925781 0.625 -5.050781 0.625 -6.3125 C 0.625 -7.539062 0.925781 -8.648438 1.53125 -9.640625 C 2.144531 -10.628906 2.988281 -11.398438 4.0625 -11.953125 C 5.144531 -12.503906 6.363281 -12.78125 7.71875 -12.78125 C 9.082031 -12.78125 10.304688 -12.503906 11.390625 -11.953125 C 12.472656 -11.398438 13.3125 -10.632812 13.90625 -9.65625 C 14.507812 -8.675781 14.8125 -7.5625 14.8125 -6.3125 C 14.8125 -5.050781 14.507812 -3.925781 13.90625 -2.9375 C 13.3125 -1.945312 12.472656 -1.175781 11.390625 -0.625 C 10.304688 -0.0703125 9.082031 0.203125 7.71875 0.203125 Z M 7.71875 -3.296875 C 8.488281 -3.296875 9.117188 -3.5625 9.609375 -4.09375 C 10.109375 -4.625 10.359375 -5.363281 10.359375 -6.3125 C 10.359375 -7.238281 10.109375 -7.960938 9.609375 -8.484375 C 9.117188 -9.015625 8.488281 -9.28125 7.71875 -9.28125 C 6.945312 -9.28125 6.3125 -9.015625 5.8125 -8.484375 C 5.320312 -7.960938 5.078125 -7.238281 5.078125 -6.3125 C 5.078125 -5.363281 5.320312 -4.625 5.8125 -4.09375 C 6.3125 -3.5625 6.945312 -3.296875 7.71875 -3.296875 Z M 7.71875 -3.296875"/></g></g></g><g fill-opacity="1" fill="#ffffff"><g transform="translate(63.929069, 83.280419)"><g><path d="M 1.421875 -17.203125 L 5.8125 -17.203125 L 5.8125 0 L 1.421875 0 Z M 1.421875 -17.203125"/></g></g></g><g fill-opacity="1" fill="#ffffff"><g transform="translate(68.821153, 83.280419)"><g><path d="M 14.625 -12.5625 L 14.625 0 L 10.4375 0 L 10.4375 -1.34375 C 9.96875 -0.832031 9.410156 -0.445312 8.765625 -0.1875 C 8.117188 0.0703125 7.429688 0.203125 6.703125 0.203125 C 5.078125 0.203125 3.78125 -0.273438 2.8125 -1.234375 C 1.851562 -2.191406 1.375 -3.628906 1.375 -5.546875 L 1.375 -12.5625 L 5.78125 -12.5625 L 5.78125 -6.265625 C 5.78125 -5.316406 5.957031 -4.625 6.3125 -4.1875 C 6.664062 -3.757812 7.179688 -3.546875 7.859375 -3.546875 C 8.554688 -3.546875 9.125 -3.789062 9.5625 -4.28125 C 10 -4.769531 10.21875 -5.515625 10.21875 -6.515625 L 10.21875 -12.5625 Z M 14.625 -12.5625"/></g></g></g><g fill-opacity="1" fill="#ffffff"><g transform="translate(82.500441, 83.280419)"><g><path d="M 10.09375 -0.515625 C 9.71875 -0.273438 9.265625 -0.0976562 8.734375 0.015625 C 8.203125 0.140625 7.632812 0.203125 7.03125 0.203125 C 5.382812 0.203125 4.117188 -0.195312 3.234375 -1 C 2.359375 -1.800781 1.921875 -3 1.921875 -4.59375 L 1.921875 -8.8125 L 0.09375 -8.8125 L 0.09375 -12.109375 L 1.921875 -12.109375 L 1.921875 -15.375 L 6.328125 -15.375 L 6.328125 -12.109375 L 9.203125 -12.109375 L 9.203125 -8.8125 L 6.328125 -8.8125 L 6.328125 -4.640625 C 6.328125 -4.191406 6.445312 -3.835938 6.6875 -3.578125 C 6.925781 -3.328125 7.25 -3.203125 7.65625 -3.203125 C 8.164062 -3.203125 8.613281 -3.332031 9 -3.59375 Z M 10.09375 -0.515625"/></g></g></g><g fill-opacity="1" fill="#ffffff"><g transform="translate(90.499344, 83.280419)"><g><path d="M 1.421875 -12.5625 L 5.8125 -12.5625 L 5.8125 0 L 1.421875 0 Z M 3.625 -13.953125 C 2.820312 -13.953125 2.171875 -14.175781 1.671875 -14.625 C 1.179688 -15.070312 0.9375 -15.628906 0.9375 -16.296875 C 0.9375 -16.960938 1.179688 -17.519531 1.671875 -17.96875 C 2.171875 -18.414062 2.820312 -18.640625 3.625 -18.640625 C 4.425781 -18.640625 5.070312 -18.425781 5.5625 -18 C 6.0625 -17.582031 6.3125 -17.039062 6.3125 -16.375 C 6.3125 -15.675781 6.0625 -15.097656 5.5625 -14.640625 C 5.070312 -14.179688 4.425781 -13.953125 3.625 -13.953125 Z M 3.625 -13.953125"/></g></g></g><g fill-opacity="1" fill="#ffffff"><g transform="translate(95.391427, 83.280419)"><g><path d="M 7.71875 0.203125 C 6.375 0.203125 5.160156 -0.0703125 4.078125 -0.625 C 2.992188 -1.175781 2.144531 -1.945312 1.53125 -2.9375 C 0.925781 -3.925781 0.625 -5.050781 0.625 -6.3125 C 0.625 -7.539062 0.925781 -8.648438 1.53125 -9.640625 C 2.144531 -10.628906 2.988281 -11.398438 4.0625 -11.953125 C 5.144531 -12.503906 6.363281 -12.78125 7.71875 -12.78125 C 9.082031 -12.78125 10.304688 -12.503906 11.390625 -11.953125 C 12.472656 -11.398438 13.3125 -10.632812 13.90625 -9.65625 C 14.507812 -8.675781 14.8125 -7.5625 14.8125 -6.3125 C 14.8125 -5.050781 14.507812 -3.925781 13.90625 -2.9375 C 13.3125 -1.945312 12.472656 -1.175781 11.390625 -0.625 C 10.304688 -0.0703125 9.082031 0.203125 7.71875 0.203125 Z M 7.71875 -3.296875 C 8.488281 -3.296875 9.117188 -3.5625 9.609375 -4.09375 C 10.109375 -4.625 10.359375 -5.363281 10.359375 -6.3125 C 10.359375 -7.238281 10.109375 -7.960938 9.609375 -8.484375 C 9.117188 -9.015625 8.488281 -9.28125 7.71875 -9.28125 C 6.945312 -9.28125 6.3125 -9.015625 5.8125 -8.484375 C 5.320312 -7.960938 5.078125 -7.238281 5.078125 -6.3125 C 5.078125 -5.363281 5.320312 -4.625 5.8125 -4.09375 C 6.3125 -3.5625 6.945312 -3.296875 7.71875 -3.296875 Z M 7.71875 -3.296875"/></g></g></g><g fill-opacity="1" fill="#ffffff"><g transform="translate(108.467894, 83.280419)"><g><path d="M 9.59375 -12.78125 C 11.15625 -12.78125 12.410156 -12.316406 13.359375 -11.390625 C 14.316406 -10.460938 14.796875 -9.0625 14.796875 -7.1875 L 14.796875 0 L 10.390625 0 L 10.390625 -6.46875 C 10.390625 -8.1875 9.703125 -9.046875 8.328125 -9.046875 C 7.566406 -9.046875 6.957031 -8.796875 6.5 -8.296875 C 6.039062 -7.804688 5.8125 -7.066406 5.8125 -6.078125 L 5.8125 0 L 1.421875 0 L 1.421875 -12.5625 L 5.609375 -12.5625 L 5.609375 -11.203125 C 6.109375 -11.710938 6.695312 -12.101562 7.375 -12.375 C 8.050781 -12.644531 8.789062 -12.78125 9.59375 -12.78125 Z M 9.59375 -12.78125"/></g></g></g><g fill-opacity="1" fill="#ffffff"><g transform="translate(122.239923, 83.280419)"><g><path d="M 5.984375 0.203125 C 4.929688 0.203125 3.894531 0.0820312 2.875 -0.15625 C 1.851562 -0.394531 1.035156 -0.707031 0.421875 -1.09375 L 1.734375 -4.109375 C 2.304688 -3.753906 2.988281 -3.46875 3.78125 -3.25 C 4.570312 -3.039062 5.351562 -2.9375 6.125 -2.9375 C 6.832031 -2.9375 7.335938 -3.007812 7.640625 -3.15625 C 7.941406 -3.3125 8.09375 -3.523438 8.09375 -3.796875 C 8.09375 -4.078125 7.910156 -4.273438 7.546875 -4.390625 C 7.179688 -4.503906 6.601562 -4.617188 5.8125 -4.734375 C 4.8125 -4.859375 3.957031 -5.019531 3.25 -5.21875 C 2.550781 -5.414062 1.945312 -5.785156 1.4375 -6.328125 C 0.925781 -6.867188 0.671875 -7.628906 0.671875 -8.609375 C 0.671875 -9.410156 0.910156 -10.125 1.390625 -10.75 C 1.867188 -11.375 2.566406 -11.867188 3.484375 -12.234375 C 4.410156 -12.597656 5.515625 -12.78125 6.796875 -12.78125 C 7.703125 -12.78125 8.601562 -12.6875 9.5 -12.5 C 10.40625 -12.3125 11.15625 -12.046875 11.75 -11.703125 L 10.4375 -8.71875 C 9.320312 -9.332031 8.113281 -9.640625 6.8125 -9.640625 C 6.125 -9.640625 5.613281 -9.554688 5.28125 -9.390625 C 4.957031 -9.234375 4.796875 -9.023438 4.796875 -8.765625 C 4.796875 -8.472656 4.972656 -8.265625 5.328125 -8.140625 C 5.679688 -8.023438 6.269531 -7.910156 7.09375 -7.796875 C 8.132812 -7.640625 8.992188 -7.457031 9.671875 -7.25 C 10.347656 -7.050781 10.9375 -6.6875 11.4375 -6.15625 C 11.945312 -5.625 12.203125 -4.878906 12.203125 -3.921875 C 12.203125 -3.128906 11.960938 -2.421875 11.484375 -1.796875 C 11.003906 -1.171875 10.296875 -0.679688 9.359375 -0.328125 C 8.421875 0.0234375 7.296875 0.203125 5.984375 0.203125 Z M 5.984375 0.203125"/></g></g></g><g clip-path="url(#e94044a0b4)"><path fill-rule="nonzero" fill-opacity="1" d="M 62.683594 68.761719 L 69.972656 68.761719 L 69.972656 81.230469 L 62.683594 81.230469 Z M 62.683594 68.761719" fill="#ffffff"/></g><g clip-path="url(#cfdc3010df)"><g clip-path="url(#7fc2b43f4c)"><g clip-path="url(#791e02b2c8)"><path fill-rule="nonzero" fill-opacity="1" d="M 65.371094 69.699219 L 68.097656 68.765625 L 67.1875 73.175781 L 68.789062 72.628906 L 66.324219 81.253906 L 66.640625 75.109375 L 64.929688 75.792969 Z M 65.371094 69.699219" fill="#ff3131"/></g></g></g><g clip-path="url(#2d331e2a29)"><g clip-path="url(#462d332694)"><g clip-path="url(#9facf988fa)"><path fill-rule="nonzero" fill-opacity="1" d="M 65.371094 69.699219 L 65.839844 69.539062 L 64.929688 75.792969 Z M 66.324219 81.253906 L 66.972656 74.996094 L 66.640625 75.109375 Z M 66.324219 81.253906" fill="#000000"/></g></g></g><g clip-path="url(#f7f327f75f)"><path fill-rule="evenodd" fill-opacity="1" d="M 139.375 78.714844 C 141.167969 78.714844 142.621094 80.167969 142.621094 81.960938 C 142.621094 83.753906 141.167969 85.207031 139.375 85.207031 C 137.582031 85.207031 136.128906 83.753906 136.128906 81.960938 C 136.128906 80.167969 137.582031 78.714844 139.375 78.714844 Z M 139.375 78.714844" fill="#ffffff"/></g></svg>