<svg xmlns="http://www.w3.org/2000/svg" xmlns:xlink="http://www.w3.org/1999/xlink" zoomAndPan="magnify" preserveAspectRatio="xMidYMid meet" version="1.0" viewBox="6.58 64.23 138.77 20.66"><defs><g/><clipPath id="49b6d74e79"><path d="M 62.179688 68.507812 L 69.761719 68.507812 L 69.761719 81.492188 L 62.179688 81.492188 Z M 62.179688 68.507812 " clip-rule="nonzero"/></clipPath><clipPath id="1d7f5f8a75"><path d="M 64 68 L 69 68 L 69 82 L 64 82 Z M 64 68 " clip-rule="nonzero"/></clipPath><clipPath id="123f716860"><path d="M 62.179688 70.4375 L 67.855469 68.496094 L 71.738281 79.847656 L 66.0625 81.792969 Z M 62.179688 70.4375 " clip-rule="nonzero"/></clipPath><clipPath id="fb1cb02bfb"><path d="M 62.179688 70.4375 L 67.855469 68.496094 L 71.738281 79.847656 L 66.0625 81.792969 Z M 62.179688 70.4375 " clip-rule="nonzero"/></clipPath><clipPath id="05d82f3b91"><path d="M 64 69 L 67 69 L 67 82 L 64 82 Z M 64 69 " clip-rule="nonzero"/></clipPath><clipPath id="88f875d730"><path d="M 62.179688 70.4375 L 67.855469 68.496094 L 71.738281 79.847656 L 66.0625 81.792969 Z M 62.179688 70.4375 " clip-rule="nonzero"/></clipPath><clipPath id="953b3fe073"><path d="M 62.179688 70.4375 L 67.855469 68.496094 L 71.738281 79.847656 L 66.0625 81.792969 Z M 62.179688 70.4375 " clip-rule="nonzero"/></clipPath><clipPath id="87aa7c6e36"><path d="M 138.601562 78.132812 L 145.351562 78.132812 L 145.351562 84.882812 L 138.601562 84.882812 Z M 138.601562 78.132812 " clip-rule="nonzero"/></clipPath></defs><g fill="#000000" fill-opacity="1"><g transform="translate(5.858186, 83.616575)"><g><path d="M 15.375 -17.90625 L 15.375 0 L 11 0 L 11 -1.296875 C 10.144531 -0.285156 8.867188 0.21875 7.171875 0.21875 C 5.972656 0.21875 4.882812 -0.0546875 3.90625 -0.609375 C 2.925781 -1.171875 2.148438 -1.960938 1.578125 -2.984375 C 1.003906 -4.015625 0.71875 -5.207031 0.71875 -6.5625 C 0.71875 -7.914062 1.003906 -9.101562 1.578125 -10.125 C 2.148438 -11.144531 2.925781 -11.925781 3.90625 -12.46875 C 4.882812 -13.019531 5.972656 -13.296875 7.171875 -13.296875 C 8.722656 -13.296875 9.925781 -12.84375 10.78125 -11.9375 L 10.78125 -17.90625 Z M 8.125 -3.421875 C 8.914062 -3.421875 9.566406 -3.695312 10.078125 -4.25 C 10.597656 -4.8125 10.859375 -5.582031 10.859375 -6.5625 C 10.859375 -7.53125 10.601562 -8.285156 10.09375 -8.828125 C 9.59375 -9.378906 8.9375 -9.65625 8.125 -9.65625 C 7.320312 -9.65625 6.660156 -9.378906 6.140625 -8.828125 C 5.628906 -8.285156 5.375 -7.53125 5.375 -6.5625 C 5.375 -5.582031 5.628906 -4.8125 6.140625 -4.25 C 6.660156 -3.695312 7.320312 -3.421875 8.125 -3.421875 Z M 8.125 -3.421875 "/></g></g></g><g fill="#000000" fill-opacity="1"><g transform="translate(20.237543, 83.616575)"><g><path d="M 9.984375 -13.296875 C 11.609375 -13.296875 12.914062 -12.8125 13.90625 -11.84375 C 14.894531 -10.875 15.390625 -9.421875 15.390625 -7.484375 L 15.390625 0 L 10.8125 0 L 10.8125 -6.734375 C 10.8125 -8.515625 10.09375 -9.40625 8.65625 -9.40625 C 7.875 -9.40625 7.242188 -9.144531 6.765625 -8.625 C 6.296875 -8.113281 6.0625 -7.347656 6.0625 -6.328125 L 6.0625 0 L 1.46875 0 L 1.46875 -17.90625 L 6.0625 -17.90625 L 6.0625 -11.875 C 6.550781 -12.332031 7.132812 -12.679688 7.8125 -12.921875 C 8.488281 -13.171875 9.210938 -13.296875 9.984375 -13.296875 Z M 9.984375 -13.296875 "/></g></g></g><g fill="#000000" fill-opacity="1"><g transform="translate(34.568648, 83.616575)"><g/></g></g><g fill="#000000" fill-opacity="1"><g transform="translate(39.128546, 83.616575)"><g><path d="M 6.21875 0.21875 C 5.125 0.21875 4.046875 0.09375 2.984375 -0.15625 C 1.929688 -0.40625 1.082031 -0.734375 0.4375 -1.140625 L 1.8125 -4.265625 C 2.40625 -3.898438 3.109375 -3.609375 3.921875 -3.390625 C 4.742188 -3.171875 5.5625 -3.0625 6.375 -3.0625 C 7.113281 -3.0625 7.640625 -3.132812 7.953125 -3.28125 C 8.265625 -3.4375 8.421875 -3.660156 8.421875 -3.953125 C 8.421875 -4.242188 8.226562 -4.445312 7.84375 -4.5625 C 7.46875 -4.6875 6.875 -4.804688 6.0625 -4.921875 C 5.007812 -5.046875 4.117188 -5.210938 3.390625 -5.421875 C 2.660156 -5.628906 2.03125 -6.015625 1.5 -6.578125 C 0.96875 -7.148438 0.703125 -7.941406 0.703125 -8.953125 C 0.703125 -9.785156 0.953125 -10.523438 1.453125 -11.171875 C 1.953125 -11.828125 2.675781 -12.34375 3.625 -12.71875 C 4.582031 -13.101562 5.726562 -13.296875 7.0625 -13.296875 C 8.007812 -13.296875 8.953125 -13.195312 9.890625 -13 C 10.828125 -12.8125 11.609375 -12.539062 12.234375 -12.1875 L 10.859375 -9.078125 C 9.703125 -9.710938 8.445312 -10.03125 7.09375 -10.03125 C 6.363281 -10.03125 5.832031 -9.945312 5.5 -9.78125 C 5.164062 -9.613281 5 -9.394531 5 -9.125 C 5 -8.8125 5.179688 -8.59375 5.546875 -8.46875 C 5.921875 -8.351562 6.53125 -8.234375 7.375 -8.109375 C 8.457031 -7.941406 9.351562 -7.753906 10.0625 -7.546875 C 10.769531 -7.335938 11.382812 -6.957031 11.90625 -6.40625 C 12.425781 -5.851562 12.6875 -5.078125 12.6875 -4.078125 C 12.6875 -3.253906 12.4375 -2.515625 11.9375 -1.859375 C 11.4375 -1.210938 10.703125 -0.703125 9.734375 -0.328125 C 8.765625 0.0351562 7.59375 0.21875 6.21875 0.21875 Z M 6.21875 0.21875 "/></g></g></g><g fill="#000000" fill-opacity="1"><g transform="translate(49.86481, 83.616575)"><g><path d="M 8.03125 0.21875 C 6.632812 0.21875 5.375 -0.0664062 4.25 -0.640625 C 3.125 -1.222656 2.242188 -2.03125 1.609375 -3.0625 C 0.972656 -4.09375 0.65625 -5.257812 0.65625 -6.5625 C 0.65625 -7.84375 0.972656 -9 1.609375 -10.03125 C 2.242188 -11.0625 3.117188 -11.863281 4.234375 -12.4375 C 5.347656 -13.007812 6.613281 -13.296875 8.03125 -13.296875 C 9.445312 -13.296875 10.71875 -13.007812 11.84375 -12.4375 C 12.96875 -11.863281 13.84375 -11.066406 14.46875 -10.046875 C 15.101562 -9.023438 15.421875 -7.863281 15.421875 -6.5625 C 15.421875 -5.257812 15.101562 -4.09375 14.46875 -3.0625 C 13.84375 -2.03125 12.96875 -1.222656 11.84375 -0.640625 C 10.71875 -0.0664062 9.445312 0.21875 8.03125 0.21875 Z M 8.03125 -3.421875 C 8.832031 -3.421875 9.488281 -3.695312 10 -4.25 C 10.519531 -4.8125 10.78125 -5.582031 10.78125 -6.5625 C 10.78125 -7.53125 10.519531 -8.285156 10 -8.828125 C 9.488281 -9.378906 8.832031 -9.65625 8.03125 -9.65625 C 7.226562 -9.65625 6.566406 -9.378906 6.046875 -8.828125 C 5.535156 -8.285156 5.28125 -7.53125 5.28125 -6.5625 C 5.28125 -5.582031 5.535156 -4.8125 6.046875 -4.25 C 6.566406 -3.695312 7.226562 -3.421875 8.03125 -3.421875 Z M 8.03125 -3.421875 "/></g></g></g><g fill="#000000" fill-opacity="1"><g transform="translate(63.472119, 83.616575)"><g><path d="M 1.46875 -17.90625 L 6.0625 -17.90625 L 6.0625 0 L 1.46875 0 Z M 1.46875 -17.90625 "/></g></g></g><g fill="#000000" fill-opacity="1"><g transform="translate(68.562798, 83.616575)"><g><path d="M 15.21875 -13.078125 L 15.21875 0 L 10.859375 0 L 10.859375 -1.40625 C 10.367188 -0.875 9.785156 -0.46875 9.109375 -0.1875 C 8.441406 0.0820312 7.726562 0.21875 6.96875 0.21875 C 5.28125 0.21875 3.929688 -0.28125 2.921875 -1.28125 C 1.921875 -2.28125 1.421875 -3.773438 1.421875 -5.765625 L 1.421875 -13.078125 L 6 -13.078125 L 6 -6.515625 C 6 -5.535156 6.179688 -4.816406 6.546875 -4.359375 C 6.921875 -3.910156 7.460938 -3.6875 8.171875 -3.6875 C 8.898438 -3.6875 9.492188 -3.941406 9.953125 -4.453125 C 10.410156 -4.960938 10.640625 -5.738281 10.640625 -6.78125 L 10.640625 -13.078125 Z M 15.21875 -13.078125 "/></g></g></g><g fill="#000000" fill-opacity="1"><g transform="translate(82.7974, 83.616575)"><g><path d="M 10.5 -0.53125 C 10.113281 -0.289062 9.640625 -0.109375 9.078125 0.015625 C 8.523438 0.148438 7.9375 0.21875 7.3125 0.21875 C 5.601562 0.21875 4.289062 -0.195312 3.375 -1.03125 C 2.457031 -1.875 2 -3.125 2 -4.78125 L 2 -9.171875 L 0.09375 -9.171875 L 0.09375 -12.59375 L 2 -12.59375 L 2 -16 L 6.59375 -16 L 6.59375 -12.59375 L 9.578125 -12.59375 L 9.578125 -9.171875 L 6.59375 -9.171875 L 6.59375 -4.828125 C 6.59375 -4.359375 6.710938 -3.988281 6.953125 -3.71875 C 7.203125 -3.457031 7.539062 -3.328125 7.96875 -3.328125 C 8.488281 -3.328125 8.953125 -3.460938 9.359375 -3.734375 Z M 10.5 -0.53125 "/></g></g></g><g fill="#000000" fill-opacity="1"><g transform="translate(91.12102, 83.616575)"><g><path d="M 1.46875 -13.078125 L 6.0625 -13.078125 L 6.0625 0 L 1.46875 0 Z M 3.765625 -14.515625 C 2.929688 -14.515625 2.253906 -14.75 1.734375 -15.21875 C 1.222656 -15.6875 0.96875 -16.265625 0.96875 -16.953125 C 0.96875 -17.648438 1.222656 -18.226562 1.734375 -18.6875 C 2.253906 -19.15625 2.929688 -19.390625 3.765625 -19.390625 C 4.597656 -19.390625 5.269531 -19.164062 5.78125 -18.71875 C 6.300781 -18.28125 6.5625 -17.71875 6.5625 -17.03125 C 6.5625 -16.3125 6.300781 -15.710938 5.78125 -15.234375 C 5.269531 -14.753906 4.597656 -14.515625 3.765625 -14.515625 Z M 3.765625 -14.515625 "/></g></g></g><g fill="#000000" fill-opacity="1"><g transform="translate(96.211699, 83.616575)"><g><path d="M 8.03125 0.21875 C 6.632812 0.21875 5.375 -0.0664062 4.25 -0.640625 C 3.125 -1.222656 2.242188 -2.03125 1.609375 -3.0625 C 0.972656 -4.09375 0.65625 -5.257812 0.65625 -6.5625 C 0.65625 -7.84375 0.972656 -9 1.609375 -10.03125 C 2.242188 -11.0625 3.117188 -11.863281 4.234375 -12.4375 C 5.347656 -13.007812 6.613281 -13.296875 8.03125 -13.296875 C 9.445312 -13.296875 10.71875 -13.007812 11.84375 -12.4375 C 12.96875 -11.863281 13.84375 -11.066406 14.46875 -10.046875 C 15.101562 -9.023438 15.421875 -7.863281 15.421875 -6.5625 C 15.421875 -5.257812 15.101562 -4.09375 14.46875 -3.0625 C 13.84375 -2.03125 12.96875 -1.222656 11.84375 -0.640625 C 10.71875 -0.0664062 9.445312 0.21875 8.03125 0.21875 Z M 8.03125 -3.421875 C 8.832031 -3.421875 9.488281 -3.695312 10 -4.25 C 10.519531 -4.8125 10.78125 -5.582031 10.78125 -6.5625 C 10.78125 -7.53125 10.519531 -8.285156 10 -8.828125 C 9.488281 -9.378906 8.832031 -9.65625 8.03125 -9.65625 C 7.226562 -9.65625 6.566406 -9.378906 6.046875 -8.828125 C 5.535156 -8.285156 5.28125 -7.53125 5.28125 -6.5625 C 5.28125 -5.582031 5.535156 -4.8125 6.046875 -4.25 C 6.566406 -3.695312 7.226562 -3.421875 8.03125 -3.421875 Z M 8.03125 -3.421875 "/></g></g></g><g fill="#000000" fill-opacity="1"><g transform="translate(109.819008, 83.616575)"><g><path d="M 9.984375 -13.296875 C 11.609375 -13.296875 12.914062 -12.8125 13.90625 -11.84375 C 14.894531 -10.875 15.390625 -9.421875 15.390625 -7.484375 L 15.390625 0 L 10.8125 0 L 10.8125 -6.734375 C 10.8125 -8.515625 10.09375 -9.40625 8.65625 -9.40625 C 7.875 -9.40625 7.242188 -9.144531 6.765625 -8.625 C 6.296875 -8.113281 6.0625 -7.347656 6.0625 -6.328125 L 6.0625 0 L 1.46875 0 L 1.46875 -13.078125 L 5.84375 -13.078125 L 5.84375 -11.65625 C 6.351562 -12.1875 6.960938 -12.59375 7.671875 -12.875 C 8.378906 -13.15625 9.148438 -13.296875 9.984375 -13.296875 Z M 9.984375 -13.296875 "/></g></g></g><g fill="#000000" fill-opacity="1"><g transform="translate(124.150115, 83.616575)"><g><path d="M 6.21875 0.21875 C 5.125 0.21875 4.046875 0.09375 2.984375 -0.15625 C 1.929688 -0.40625 1.082031 -0.734375 0.4375 -1.140625 L 1.8125 -4.265625 C 2.40625 -3.898438 3.109375 -3.609375 3.921875 -3.390625 C 4.742188 -3.171875 5.5625 -3.0625 6.375 -3.0625 C 7.113281 -3.0625 7.640625 -3.132812 7.953125 -3.28125 C 8.265625 -3.4375 8.421875 -3.660156 8.421875 -3.953125 C 8.421875 -4.242188 8.226562 -4.445312 7.84375 -4.5625 C 7.46875 -4.6875 6.875 -4.804688 6.0625 -4.921875 C 5.007812 -5.046875 4.117188 -5.210938 3.390625 -5.421875 C 2.660156 -5.628906 2.03125 -6.015625 1.5 -6.578125 C 0.96875 -7.148438 0.703125 -7.941406 0.703125 -8.953125 C 0.703125 -9.785156 0.953125 -10.523438 1.453125 -11.171875 C 1.953125 -11.828125 2.675781 -12.34375 3.625 -12.71875 C 4.582031 -13.101562 5.726562 -13.296875 7.0625 -13.296875 C 8.007812 -13.296875 8.953125 -13.195312 9.890625 -13 C 10.828125 -12.8125 11.609375 -12.539062 12.234375 -12.1875 L 10.859375 -9.078125 C 9.703125 -9.710938 8.445312 -10.03125 7.09375 -10.03125 C 6.363281 -10.03125 5.832031 -9.945312 5.5 -9.78125 C 5.164062 -9.613281 5 -9.394531 5 -9.125 C 5 -8.8125 5.179688 -8.59375 5.546875 -8.46875 C 5.921875 -8.351562 6.53125 -8.234375 7.375 -8.109375 C 8.457031 -7.941406 9.351562 -7.753906 10.0625 -7.546875 C 10.769531 -7.335938 11.382812 -6.957031 11.90625 -6.40625 C 12.425781 -5.851562 12.6875 -5.078125 12.6875 -4.078125 C 12.6875 -3.253906 12.4375 -2.515625 11.9375 -1.859375 C 11.4375 -1.210938 10.703125 -0.703125 9.734375 -0.328125 C 8.765625 0.0351562 7.59375 0.21875 6.21875 0.21875 Z M 6.21875 0.21875 "/></g></g></g><g clip-path="url(#49b6d74e79)"><path fill="#000000" d="M 62.179688 68.507812 L 69.761719 68.507812 L 69.761719 81.480469 L 62.179688 81.480469 Z M 62.179688 68.507812 " fill-opacity="1" fill-rule="nonzero"/></g><g clip-path="url(#1d7f5f8a75)"><g clip-path="url(#123f716860)"><g clip-path="url(#fb1cb02bfb)"><path fill="#ff3131" d="M 64.972656 69.484375 L 67.8125 68.511719 L 66.867188 73.101562 L 68.53125 72.53125 L 65.96875 81.511719 L 66.296875 75.113281 L 64.515625 75.824219 Z M 64.972656 69.484375 " fill-opacity="1" fill-rule="nonzero"/></g></g></g><g clip-path="url(#05d82f3b91)"><g clip-path="url(#88f875d730)"><g clip-path="url(#953b3fe073)"><path fill="#000000" d="M 64.972656 69.484375 L 65.460938 69.316406 L 64.515625 75.824219 Z M 65.96875 81.511719 L 66.640625 74.996094 L 66.296875 75.113281 Z M 65.96875 81.511719 " fill-opacity="1" fill-rule="nonzero"/></g></g></g><g clip-path="url(#87aa7c6e36)"><path fill="#000000" d="M 141.976562 78.132812 C 143.839844 78.132812 145.351562 79.644531 145.351562 81.507812 C 145.351562 83.371094 143.839844 84.882812 141.976562 84.882812 C 140.113281 84.882812 138.601562 83.371094 138.601562 81.507812 C 138.601562 79.644531 140.113281 78.132812 141.976562 78.132812 Z M 141.976562 78.132812 " fill-opacity="1" fill-rule="evenodd"/></g></svg>